<svg viewBox="0 0 163.84 163.84" width="32" height="32" xmlns="http://www.w3.org/2000/svg"><path d="M81.92 0c-1.712-.001-3.424.634-4.694 1.91L1.899 77.231c-2.54 2.54-2.528 6.849.012 9.389l75.314 75.31c2.54 2.54 6.85 2.551 9.39 0l75.326-75.322c2.54-2.54 2.528-6.849-.012-9.39L86.614 1.91C85.344.64 83.632.001 81.92 0zm-.006 11.168l70.768 70.764-70.768 70.764-70.768-70.764zm.004 32.659c-21.02 0-38.101 17.08-38.101 38.1 0 21.02 17.08 38.1 38.101 38.1 21.02 0 38.101-17.08 38.101-38.1 0-21.02-17.08-38.1-38.101-38.1zm0 4.226c18.732 0 33.877 15.143 33.877 33.874s-15.145 33.876-33.877 33.876c-18.732 0-33.877-15.145-33.877-33.876 0-18.731 15.145-33.875 33.877-33.875z"/></svg>
