<svg viewBox="0 0 1024 1024" xmlns="http://www.w3.org/2000/svg" width="32" height="32"><path d="M219.98 107.52c-109.934 0-199.5 89.188-199.5 198.912v411.136c0 109.724 89.566 198.912 199.5 198.912h584.04c109.934 0 199.5-89.188 199.5-198.912V306.432c0-109.724-89.566-198.912-199.5-198.912H219.98zm0 61.44h584.04c77.074 0 138.06 60.839 138.06 137.472v411.136c0 76.633-60.986 137.472-138.06 137.472H219.98c-77.074 0-138.06-60.839-138.06-137.472V306.432c0-76.633 60.986-137.472 138.06-137.472zm-36.822 73.68V631.7h518.257V242.64H183.158zm22.07 134.711h474.118v105.672H327.21v-105.41h-22.07v105.41h-99.911V377.35zm0 127.742h99.911V609.63h-99.911V505.093zm121.981 0h352.137V609.63H327.21V505.093z"/><path d="M207.238 267.552v110.17h471.88v-110.17z"/></svg>
