<svg viewBox="0 0 1079 1024" xmlns="http://www.w3.org/2000/svg" width="32" height="32"><path d="M482.381 46.986c-197.353-1.47-382.5 148.143-424.023 340.878-40.05 169.298 31.658 358.143 175.275 456.84 139.4 99.842 338.07 107.667 483.076 14.938 145.808-89.289 231.67-267.591 204.464-437.256C896.259 246.508 755.764 93.543 581.299 57.39c-32.436-7.236-65.692-10.625-98.918-10.405zm10.48 137.578c145.018-.46 278.228 119.558 293.009 263.931 18.867 137.995-70.1 282.345-203.858 323.833-130.55 44.426-287.973-12.27-355.984-133.367-75.254-125.638-43.236-304.675 76.014-391.902 54.079-41.727 122.542-64.066 190.818-62.495z"/></svg>
