<svg viewBox="0 0 163.84 163.84" width="32" height="32" xmlns="http://www.w3.org/2000/svg"><path d="M81.92 0c-1.712-.001-3.424.634-4.694 1.91L1.899 77.231c-2.54 2.54-2.528 6.849.012 9.389l75.314 75.31c2.54 2.54 6.85 2.551 9.39 0l75.326-75.322c2.54-2.54 2.528-6.849-.012-9.39L86.614 1.91C85.344.64 83.632.001 81.92 0zm-.006 11.168l70.768 70.764-70.768 70.764-70.767-70.764zM55.485 50.542l-.852.163-.723.488-2.723 2.724s-.497.729-.497.737l-.154.84.166.832.473.737 24.873 24.871-24.86 24.86v-.008l-.498.737-.154.84.166.832s.473.728.473.737l2.724 2.722.746.49.828.162.84-.154c.002 0 .735-.498.735-.498l24.861-24.86 24.867 24.866.746.488.829.163.84-.154.734-.497 2.724-2.723.485-.72s.166-.849.166-.857l-.166-.832-.485-.746L87.785 81.92l24.864-24.862.485-.72.166-.849-.166-.831-.497-.738-2.723-2.723-.723-.489-.828-.163-.853.163-.722.489-24.864 24.863-24.876-24.875v-.008l-.734-.471-.829-.163z"/></svg>
