<svg viewBox="0 0 163.84 163.84" width="32" height="32" xmlns="http://www.w3.org/2000/svg"><path d="M81.92 0c-1.712-.001-3.424.634-4.694 1.91L1.899 77.231c-2.54 2.54-2.528 6.849.012 9.389l75.314 75.31c2.54 2.54 6.85 2.551 9.39 0l75.326-75.322c2.54-2.54 2.528-6.849-.012-9.39L86.614 1.91C85.344.64 83.632.001 81.92 0zm-.006 11.168l70.768 70.764-70.768 70.764-70.768-70.764zm-1.932 29.223l-.856.163-.701.472-.488.72-.165.857v35.162h-35.18l-.005-.007-.853.189-.7.471v-.009l-.488.72-.165.858v3.851s.164.867.17.873l.485.703.705.472.856.188h35.176v35.156l-.006-.005.17.873.485.703.705.471s.85.18.856.189h3.851l.873-.18.701-.472.486-.703.167-.87V86.078h35.167l.873-.18.7-.472c.002 0 .486-.703.486-.703l.168-.87v-3.85c0-.001-.167-.85-.166-.858-.001 0-.483-.72-.49-.72l-.705-.471s-.87-.189-.87-.18H86.06V42.612s-.166-.848-.166-.857l-.483-.72-.705-.472-.873-.171z"/></svg>
