<svg viewBox="0 0 1024 1024" xmlns="http://www.w3.org/2000/svg" width="32" height="32"><path d="M219.98 107.52c-109.934 0-199.5 89.188-199.5 198.912v411.136c0 109.724 89.566 198.912 199.5 198.912h584.04c109.934 0 199.5-89.188 199.5-198.912V306.432c0-109.724-89.566-198.912-199.5-198.912H219.98zm0 61.44h584.04c77.074 0 138.06 60.839 138.06 137.472v411.136c0 76.633-60.986 137.472-138.06 137.472H219.98c-77.074 0-138.06-60.839-138.06-137.472V306.432c0-76.633 60.986-137.472 138.06-137.472zm37.449 51.644c-.015 11.862.004 23.725.034 35.587-10.116 2.862-19.36 6.856-28.09 11.748l-25.515-25.208-47.708 47.985 25.512 25.203a126.17 126.17 0 00-11.462 27.97l-36.14.067v67.58l36.517-.132c3.34 13.24 10.608 25.144 17.846 35.788v-58.294l-31.921.114v-22.655l31.762-.057 1.783-9.032a103.773 103.773 0 0115.147-36.964l5.06-7.686-22.315-22.045L204 274.419l22.356 22.087 7.608-5.077c11.627-7.67 24.343-12.812 37.024-15.49l8.964-1.86-.081-31.031h23.073l-.178 30.868h60.542c-5.68-6.778-29.215-15.6-37.995-18.058l.204-35.253c-25.136 0-44.842.001-68.088-.001zm63.851 64.653l.093 35.585c-10.117 2.862-19.361 6.856-28.091 11.75l-25.515-25.21-47.709 47.986 25.513 25.203a126.163 126.163 0 00-11.463 27.97l-36.14.066v67.581l36.518-.13c2.874 10.02 6.859 19.172 11.742 27.81l-26.127 26.026 48.24 47.411 26.034-25.913a126.682 126.682 0 0028.224 11.472l.017 36.778c23.21.203 47.92.098 67.755.096v-37.213c10.124-2.855 19.397-6.878 28.13-11.768l26.012 25.648 47.74-47.925-26.067-25.688a126.456 126.456 0 0011.477-28.02l35.388-.22v-67.514l-35.785.217c-2.876-10.031-6.804-19.12-11.752-27.816l24.726-24.789-48.213-47.492-24.694 24.779a127.807 127.807 0 00-28.111-11.426l.203-35.254H321.28zm22.5 22.443h23.074l-.178 30.869 9.113 1.788a105.44 105.44 0 0137.196 15.092l7.638 4.979 21.55-21.623 16.229 15.985-21.581 21.636 5.193 7.664c7.619 11.501 12.673 23.934 15.526 36.736l1.877 8.98 31.19-.19v22.632l-31.016.191-1.781 8.98a104.074 104.074 0 01-15.165 37l-5.066 7.695 22.846 22.514-16.058 16.12-22.848-22.528-7.596 5.046c-11.63 7.6-24.245 12.864-36.973 15.457l-9.024 1.802v32.77c-6.169.016-12.898.006-22.881-.008l-.015-32.525-9.064-1.77c-13.25-2.588-25.912-7.707-37.173-15.09l-7.616-4.994-22.936 22.831-16.231-15.952 22.968-22.879-5.241-7.696c-7.626-11.476-12.671-23.922-15.529-36.71l-1.876-8.952-31.921.114V431.01l31.762-.058 1.783-9.031a103.783 103.783 0 0115.147-36.965l5.061-7.686-22.316-22.044 16.06-16.154 22.357 22.087 7.608-5.076c11.64-7.621 23.994-12.677 37.024-15.49l8.964-1.861-.08-31.031zm11.916 82.46c-27.78 0-50.54 22.762-50.54 50.542s22.76 50.54 50.54 50.54c27.78 0 50.54-22.76 50.54-50.54 0-27.78-22.76-50.541-50.54-50.541zm0 22.444c15.65 0 28.098 12.447 28.098 28.098 0 15.65-12.447 28.097-28.098 28.097-15.65 0-28.097-12.446-28.097-28.097s12.446-28.098 28.097-28.098z"/></svg>
