<svg viewBox="0 0 1078 1024" xmlns="http://www.w3.org/2000/svg" width="32" height="32"><path d="M482.025 46.954C310.829 46.385 146.559 157.003 81.583 315.24c-68.401 156.698-32.861 351.357 86.791 473.567 115.079 123.873 304.685 169.339 463.48 111.38 164.571-56.04 286.067-217.66 292.672-391.608 11.078-170.927-89.484-341.455-243.46-415.91C620.772 62.582 553.443 46.89 486.07 46.988a395.03 395.03 0 00-4.045-.034zm12.032 47.449c167.577.92 325.405 122.15 368.744 284.314 46.053 155.158-16.238 334.802-149.936 426.7-138.882 102.079-344.834 94.694-475.984-17.16C104.74 682.898 57.44 488.02 125.237 333.48 183.999 190.612 331.503 92.637 486.07 94.45c2.665-.046 5.327-.061 7.987-.047z"/></svg>
